<svg width="71" height="73" viewBox="0 0 71 73" fill="none" xmlns="http://www.w3.org/2000/svg">
<path fill-rule="evenodd" clip-rule="evenodd" d="M34.8854 52.6696C24.3023 46.4527 4.83204 32.1848 4.57233 17.948C4.28302 2.09837 22.098 -5.08976 35.5 8.53783C48.9001 -5.08771 66.7142 2.09574 66.4277 17.9453C66.1705 32.1832 46.6983 46.4524 36.1148 52.6698C35.7249 52.8983 35.275 52.8983 34.8854 52.6696Z" fill="#FE646F"/>
<path fill-rule="evenodd" clip-rule="evenodd" d="M34.8853 52.6697C34.6083 52.507 34.3239 52.3375 34.0352 52.1639C44.776 45.7042 63.2475 31.8105 63.498 17.9454C63.6692 8.47742 57.3804 2.10301 49.4326 1.4094C58.7052 0.61531 66.6196 7.33909 66.4277 17.9454C66.1705 32.1833 46.6983 46.4525 36.1148 52.6698C35.7248 52.8984 35.275 52.8984 34.8853 52.6697ZM18.6382 1.40926C23.2218 1.80198 29.6021 5.41926 34.0352 9.92688C34.518 9.43601 35.0069 8.97532 35.5 8.53792C30.1047 3.05178 23.9948 0.941238 18.6382 1.40926Z" fill="#FD4755"/>
<path fill-rule="evenodd" clip-rule="evenodd" d="M14.3362 32.9498H29.0935C29.5063 32.9498 29.8615 32.7712 30.1078 32.4397C30.354 32.1084 30.4224 31.7167 30.3033 31.3214C29.1908 27.6324 25.7669 24.9456 21.7149 24.9456C17.663 24.9456 14.2391 27.6324 13.1266 31.3214C13.0073 31.7168 13.0759 32.1084 13.3221 32.4397C13.5682 32.7712 13.9234 32.9498 14.3362 32.9498Z" fill="#6CF5C2"/>
<path fill-rule="evenodd" clip-rule="evenodd" d="M29.0936 32.9498C29.5063 32.9498 29.8616 32.7712 30.1078 32.4397C30.3541 32.1082 30.4226 31.7167 30.3034 31.3214C29.1908 27.6324 25.7669 24.9456 21.715 24.9456C21.2861 24.9456 20.8642 24.976 20.4514 25.0342C23.9386 25.5259 26.7814 28.0229 27.7761 31.3214C27.8953 31.7167 27.8268 32.1082 27.5805 32.4397C27.3344 32.7712 26.9791 32.9498 26.5663 32.9498H29.0936Z" fill="#00E499"/>
<path d="M26.1279 21.4648C26.704 19.0278 25.1954 16.5852 22.7584 16.0092C20.3214 15.4331 17.8789 16.9417 17.3028 19.3787C16.7268 21.8157 18.2353 24.2582 20.6723 24.8343C23.1093 25.4104 25.5519 23.9018 26.1279 21.4648Z" fill="#F6DCCD"/>
<path fill-rule="evenodd" clip-rule="evenodd" d="M21.7149 15.8755C24.2195 15.8755 26.2499 17.9059 26.2499 20.4105C26.2499 22.9151 24.2195 24.9455 21.7149 24.9455C21.5005 24.9455 21.2895 24.9303 21.0831 24.9016C23.2886 24.5941 24.9864 22.7008 24.9864 20.4106C24.9864 18.1205 23.2886 16.2272 21.0831 15.9197C21.2895 15.8907 21.5005 15.8755 21.7149 15.8755Z" fill="#F1CBBC"/>
<path fill-rule="evenodd" clip-rule="evenodd" d="M42.2232 32.9388H56.9803C57.3931 32.9388 57.7483 32.7602 57.9946 32.4287C58.2408 32.0974 58.3092 31.7057 58.1901 31.3104C57.0776 27.6214 53.6537 24.9346 49.6019 24.9346C45.55 24.9346 42.1259 27.6214 41.0135 31.3104C40.8943 31.7058 40.9628 32.0974 41.2091 32.4287C41.4552 32.7601 41.8104 32.9388 42.2232 32.9388Z" fill="#FFE177"/>
<path fill-rule="evenodd" clip-rule="evenodd" d="M56.9805 32.9388C57.3933 32.9388 57.7485 32.7601 57.9947 32.4287C58.241 32.0972 58.3095 31.7057 58.1903 31.3104C57.0778 27.6214 53.6538 24.9346 49.6021 24.9346C49.1732 24.9346 48.7513 24.965 48.3385 25.0232C51.8257 25.5149 54.6685 28.0119 55.6632 31.3104C55.7824 31.7057 55.7138 32.0972 55.4676 32.4287C55.2215 32.7602 54.8661 32.9388 54.4533 32.9388H56.9805Z" fill="#FFD064"/>
<path d="M54.0538 21.3625C54.5747 18.9129 53.0113 16.5049 50.5618 15.9839C48.1123 15.463 45.7042 17.0264 45.1833 19.4759C44.6623 21.9254 46.2257 24.3335 48.6752 24.8544C51.1247 25.3754 53.5328 23.812 54.0538 21.3625Z" fill="#F6DCCD"/>
<path fill-rule="evenodd" clip-rule="evenodd" d="M49.6019 15.8645C52.1065 15.8645 54.1367 17.8949 54.1367 20.3995C54.1367 22.9041 52.1063 24.9345 49.6019 24.9345C49.3874 24.9345 49.1765 24.9193 48.9701 24.8904C51.1756 24.583 52.8733 22.6896 52.8733 20.3995C52.8733 18.1094 51.1756 16.2161 48.9701 15.9086C49.1765 15.8797 49.3874 15.8645 49.6019 15.8645Z" fill="#F1CBBC"/>
<path fill-rule="evenodd" clip-rule="evenodd" d="M28.1214 34.2505H42.8785C43.2913 34.2505 43.6466 34.072 43.8928 33.7405C44.139 33.4091 44.2075 33.0174 44.0884 32.6222C42.9758 28.9332 39.5519 26.2463 35.5 26.2463C31.4481 26.2463 28.0242 28.9332 26.9116 32.6222C26.7924 33.0176 26.8609 33.4091 27.1072 33.7405C27.3534 34.072 27.7086 34.2505 28.1214 34.2505Z" fill="#8AC9FE"/>
<path fill-rule="evenodd" clip-rule="evenodd" d="M42.8786 34.2505C43.2914 34.2505 43.6466 34.072 43.8929 33.7405C44.1391 33.409 44.2076 33.0174 44.0884 32.6222C42.9759 28.9332 39.5519 26.2463 35.5 26.2463C35.0711 26.2463 34.6492 26.2768 34.2365 26.335C37.7237 26.8267 40.5665 29.3237 41.5611 32.6222C41.6804 33.0174 41.6118 33.409 41.3656 33.7405C41.1195 34.072 40.7641 34.2505 40.3513 34.2505H42.8786Z" fill="#60B7FF"/>
<path d="M39.9162 22.7695C40.4922 20.3325 38.9836 17.8899 36.5466 17.3139C34.1097 16.7378 31.6671 18.2464 31.091 20.6834C30.515 23.1204 32.0235 25.5629 34.4605 26.139C36.8975 26.7151 39.3401 25.2065 39.9162 22.7695Z" fill="#F6DCCD"/>
<path fill-rule="evenodd" clip-rule="evenodd" d="M35.5001 17.1765C38.0047 17.1765 40.0351 19.2069 40.0351 21.7115C40.0351 24.2161 38.0047 26.2465 35.5001 26.2465C35.2856 26.2465 35.0747 26.2313 34.8683 26.2026C37.0738 25.8951 38.7715 24.0018 38.7715 21.7117C38.7715 19.4215 37.0738 17.5282 34.8683 17.2208C35.0747 17.1917 35.2855 17.1765 35.5001 17.1765Z" fill="#F1CBBC"/>
<path fill-rule="evenodd" clip-rule="evenodd" d="M42.5824 67.3058L42.5614 53.4472C42.5575 50.8462 42.9011 48.4022 44.8328 46.6612C46.9863 44.7198 50.9012 41.78 53.915 38.2167C55.246 37.0167 57.2557 36.9499 58.5227 38.2168C59.7899 39.484 59.8315 41.197 58.5231 42.8248L59.5484 41.5628C60.7232 40.1167 61.3498 38.5275 61.3428 36.6642L61.2918 23.3221C61.2525 12.951 68.8648 15.8261 68.9636 19.3238L69.6596 43.885C69.7233 46.1438 68.91 48.1055 67.3119 49.7035L56.2024 60.813V67.3027C56.2024 68.5503 55.1846 69.5681 53.937 69.5681H44.8475C43.6013 69.568 42.5843 68.5524 42.5824 67.3058Z" fill="#F6DCCD"/>
<path fill-rule="evenodd" clip-rule="evenodd" d="M59.008 38.8127C59.7722 39.9938 59.6362 41.4402 58.5232 42.8248C56.7109 44.649 54.8859 46.4623 53.0676 48.2806C52.5807 48.7677 51.791 48.7677 51.3039 48.2806C50.817 47.7936 50.817 47.004 51.3039 46.5169L59.008 38.8127Z" fill="#F1CBBC"/>
<path fill-rule="evenodd" clip-rule="evenodd" d="M42.5825 67.3059L42.5617 53.4471C42.5577 50.8461 42.9014 48.4021 44.8331 46.6611C45.9852 45.6225 47.6415 44.2979 49.3943 42.7451V69.568H44.848C43.6014 69.568 42.5844 68.5524 42.5825 67.3059Z" fill="#F1CBBC"/>
<path fill-rule="evenodd" clip-rule="evenodd" d="M39.9034 64.3785L59.2111 64.5443C60.1446 64.5524 60.9019 65.3227 60.8939 66.2563L60.8619 69.9732C60.8539 70.9067 60.0835 71.664 59.15 71.656L39.8423 71.4902C38.9088 71.4821 38.1514 70.7117 38.1595 69.7782L38.1914 66.0613C38.1995 65.1278 38.9698 64.3704 39.9034 64.3785Z" fill="#D1D1D6"/>
<path fill-rule="evenodd" clip-rule="evenodd" d="M52.403 65.8192L55.8203 65.8485L59.1997 65.8775C60.1313 65.8856 60.8875 66.6527 60.8825 67.5838L60.8939 66.256C60.902 65.3225 60.1447 64.552 59.2111 64.5441L55.8203 64.5149L49.0117 64.4565L42.1956 64.398L39.9034 64.3782C39.0947 64.3712 38.4086 64.9387 38.2343 65.6975L42.2028 65.7316L49.0114 65.7901L52.4022 65.8192H52.403Z" fill="#B1B1B5"/>
<path fill-rule="evenodd" clip-rule="evenodd" d="M28.4176 67.3058L28.4386 53.4472C28.4425 50.8462 28.099 48.4022 26.1672 46.6612C24.0137 44.7198 20.0986 41.78 17.085 38.2167C15.7541 37.0167 13.7443 36.9499 12.4772 38.2168C11.21 39.484 11.1684 41.197 12.4768 42.8248L11.4515 41.5628C10.2767 40.1167 9.65006 38.5275 9.65709 36.6642L9.70792 23.3221C9.74718 12.951 2.13497 15.8261 2.03609 19.3238L1.34015 43.885C1.27643 46.1438 2.08971 48.1055 3.68785 49.7035L14.7974 60.813V67.3027C14.7974 68.5503 15.8151 69.5681 17.0628 69.5681H26.1523C27.3988 69.568 28.4157 68.5524 28.4176 67.3058Z" fill="#F6DCCD"/>
<path fill-rule="evenodd" clip-rule="evenodd" d="M11.9921 38.8127C11.2279 39.9938 11.3638 41.4402 12.4768 42.8248C14.2891 44.649 16.1142 46.4623 17.9325 48.2806C18.4194 48.7677 19.2091 48.7677 19.6962 48.2806C20.1831 47.7936 20.1831 47.004 19.6962 46.5169L11.9921 38.8127Z" fill="#F1CBBC"/>
<path fill-rule="evenodd" clip-rule="evenodd" d="M28.4177 67.3059L28.4385 53.4471C28.4424 50.8461 28.0989 48.4021 26.1671 46.6611C25.015 45.6225 23.3587 44.2979 21.6058 42.7451V69.568H26.1521C27.3989 69.568 28.4157 68.5524 28.4177 67.3059Z" fill="#F1CBBC"/>
<path fill-rule="evenodd" clip-rule="evenodd" d="M31.0967 64.3785L11.7891 64.5443C10.8555 64.5524 10.0982 65.3227 10.1063 66.2563L10.1382 69.9732C10.1463 70.9067 10.9166 71.664 11.8502 71.656L31.1578 71.4902C32.0914 71.4821 32.8487 70.7117 32.8406 69.7782L32.8087 66.0613C32.8008 65.1278 32.0303 64.3704 31.0967 64.3785Z" fill="#D1D1D6"/>
<path fill-rule="evenodd" clip-rule="evenodd" d="M18.5972 65.8192L15.1799 65.8485L11.8005 65.8775C10.8689 65.8856 10.1127 66.6527 10.1177 67.5838L10.1063 66.256C10.0982 65.3225 10.8555 64.552 11.7891 64.5441L15.1799 64.5149L21.9885 64.4565L28.8047 64.398L31.0969 64.3782C31.9056 64.3712 32.5918 64.9387 32.7661 65.6975L28.7975 65.7316L21.9889 65.7901L18.5981 65.8192H18.5972Z" fill="#B1B1B5"/>
<path fill-rule="evenodd" clip-rule="evenodd" d="M41.6332 69.0272C42.2251 69.2632 42.8972 68.9734 43.1332 68.38C43.3684 67.7866 43.0787 67.116 42.4853 66.88C41.894 66.6441 41.2212 66.9339 40.986 67.5259C40.7499 68.1191 41.0397 68.7912 41.6332 69.0272ZM55.0292 63.3361V60.8212C55.0292 60.5106 55.1521 60.2132 55.3721 59.9938L66.4842 48.8809C67.8711 47.4968 68.5404 45.8285 68.4852 43.924L67.7953 19.3571C67.7607 18.3215 66.5188 17.2858 65.3113 17.2858C65.2976 17.2858 65.2907 17.2858 65.2768 17.2858C63.5036 17.3134 62.4486 19.5697 62.4631 23.3197L62.5127 36.664C62.5217 38.747 61.8476 40.5927 60.4565 42.3067C60.4565 42.3067 59.7679 43.1506 59.5375 43.4321C59.5321 43.439 57.046 46.0451 55.7282 47.3195C55.1299 47.8998 54.5103 48.4987 53.8935 49.1156C53.6636 49.344 53.3649 49.4585 53.0648 49.4585C52.7647 49.4585 52.4652 49.344 52.2354 49.1156C51.7787 48.6588 51.7787 47.9157 52.2354 47.459C52.8668 46.8276 53.4925 46.2212 54.099 45.6354C55.3719 44.4032 56.5747 43.2383 57.7214 41.9496C58.2837 41.1879 58.7204 40.0776 57.6917 39.0509C56.9113 38.2684 55.6576 38.2699 54.751 39.0446C52.4671 41.7287 49.7556 44.0132 47.5744 45.8534C46.8142 46.4937 46.1579 47.0456 45.6128 47.5384C43.9513 49.0336 43.7257 51.2644 43.7292 53.4528L43.7409 63.2396L55.0292 63.3361ZM59.1966 65.7152C59.3822 65.7165 59.5072 65.816 59.5658 65.8746C59.6223 65.9332 59.7196 66.0594 59.7162 66.2458L59.6859 69.9634C59.6831 70.2477 59.4423 70.4843 59.1602 70.4843C59.1581 70.4843 59.1553 70.4843 59.1539 70.4843L39.8433 70.3188C39.6569 70.318 39.532 70.2194 39.4747 70.1607C39.4167 70.102 39.3194 69.9751 39.323 69.7888L39.3533 66.0712C39.3566 65.7868 39.5969 65.5495 39.879 65.5495H39.8838L59.1966 65.7152ZM43.2338 46.6545C40.7119 48.4464 38.0499 50.1748 35.5218 51.659C35.5086 51.6672 35.4997 51.6687 35.5012 51.6707C35.4997 51.6687 35.4908 51.6673 35.4791 51.6603C32.951 50.1748 30.2876 48.4463 27.7664 46.6545C27.5276 46.3571 27.26 46.0702 26.957 45.7962C26.3822 45.2795 25.6793 44.6875 24.9367 44.0603C22.8039 42.2635 20.1496 40.0267 17.9831 37.4647C17.948 37.4247 17.9113 37.3867 17.8713 37.3514C17.1496 36.6994 16.2837 36.3102 15.3978 36.1798C14.7354 35.4927 14.1041 34.8054 13.5065 34.1216H25.4185C25.4185 34.1229 25.417 34.1244 25.417 34.1257C25.3819 34.4569 25.4888 34.7866 25.7118 35.0337C25.9333 35.2815 26.2505 35.4235 26.5832 35.4235L44.4178 35.4222C44.7498 35.4222 45.0665 35.2815 45.2893 35.0337C45.5122 34.7868 45.6169 34.4569 45.5825 34.1257C45.5825 34.1242 45.5825 34.1229 45.5825 34.1216H57.4943C56.8968 34.8054 56.2642 35.4925 55.6031 36.1798C54.7171 36.3102 53.8513 36.6994 53.1275 37.3514C53.0882 37.3866 53.0516 37.4247 53.0178 37.4647C50.8513 40.0265 48.1968 42.2635 46.0642 44.0603C45.3203 44.6875 44.6179 45.2795 44.0438 45.7962C43.7409 46.07 43.4726 46.3571 43.2338 46.6545ZM27.26 63.2396L27.2717 53.4528C27.2745 51.2642 27.0474 49.0336 25.388 47.5384C24.8417 47.0458 24.1854 46.4938 23.4265 45.8534C21.2434 44.0132 18.5324 41.7287 16.2499 39.0446C15.3433 38.2697 14.0896 38.2684 13.307 39.0509C12.2803 40.0776 12.7171 41.1879 13.2795 41.9496C14.4262 43.2385 15.629 44.4032 16.9006 45.6354C17.5072 46.2212 18.1322 46.8276 18.7636 47.459C19.2224 47.9157 19.2224 48.6588 18.7636 49.1156C18.5352 49.344 18.2351 49.4585 17.9349 49.4585C17.6361 49.4585 17.3354 49.344 17.107 49.1156C16.4887 48.4974 15.8692 47.8984 15.2702 47.3182C13.953 46.0438 11.4691 43.4392 11.4629 43.4323C11.2333 43.1521 10.546 42.3096 10.546 42.3096C9.15157 40.593 8.4795 38.7473 8.48638 36.6643L8.53809 23.32C8.55259 19.5698 7.49966 17.3137 5.72222 17.2861C5.7105 17.2861 5.69878 17.2861 5.68838 17.2861C4.48296 17.2861 3.23609 18.3218 3.20723 19.3574L2.51172 43.9242C2.45723 45.8285 3.13267 47.4969 4.5168 48.8811L15.629 59.994C15.849 60.2134 15.9719 60.5107 15.9719 60.8213V63.3363L27.26 63.2396ZM11.8044 65.7152C11.6168 65.7165 11.4925 65.816 11.4353 65.8746C11.378 65.9332 11.2814 66.0594 11.2828 66.2458L11.3151 69.9634C11.3179 70.2477 11.558 70.4843 11.8409 70.4843H11.845L31.1562 70.3188C31.3438 70.318 31.468 70.2194 31.5253 70.1607C31.5826 70.102 31.6791 69.9751 31.6778 69.7888L31.6454 66.0712C31.6439 65.8835 31.5461 65.7586 31.4874 65.702C31.4288 65.6447 31.3038 65.5495 31.1197 65.5495C31.1182 65.5495 31.1169 65.5495 31.1148 65.5495L11.8044 65.7152ZM12.6323 36.66C12.279 36.8519 11.9478 37.0954 11.6504 37.3921C11.3986 37.646 11.182 37.9125 11.0018 38.1911C10.8845 37.7061 10.8287 37.2023 10.83 36.6731L10.8389 34.6003C11.4063 35.285 12.0038 35.9714 12.6323 36.66ZM49.2836 23.7739C47.4297 23.7726 45.9221 22.265 45.9221 20.4109C45.9221 18.5563 47.431 17.0472 49.2851 17.0472C51.1397 17.0472 52.6488 18.5562 52.6488 20.4109C52.6488 22.265 51.1398 23.7726 49.2871 23.7739H49.2851H49.2836ZM35.4999 25.0746C37.3546 25.0746 38.8628 23.5677 38.8628 21.7129C38.8628 19.8583 37.3545 18.3499 35.4999 18.3499C33.6452 18.3499 32.1376 19.8583 32.1376 21.7129C32.1375 23.5675 33.6451 25.0746 35.4999 25.0746ZM27.9982 33.0796H43.0026C42.0711 29.7754 39.0462 27.4183 35.4997 27.4183C31.9533 27.4185 28.9297 29.7754 27.9982 33.0796ZM21.7139 23.7739C19.8599 23.7726 18.3523 22.265 18.3523 20.4109C18.3523 18.5563 19.8612 17.0472 21.7152 17.0472C23.5699 17.0472 25.0775 18.5562 25.0775 20.4109C25.0775 22.265 23.5699 23.7726 21.7166 23.7739C21.7152 23.7739 21.7152 23.7739 21.7152 23.7739C21.7139 23.7739 21.7139 23.7739 21.7139 23.7739ZM27.6189 28.8246C26.9109 29.6975 26.3431 30.6924 25.9546 31.7777H14.2125C15.1447 28.4748 18.1675 26.1178 21.7141 26.1178H21.7154C23.9992 26.1178 26.1451 27.1169 27.6189 28.8246ZM45.0458 31.7777C44.6566 30.6924 44.0896 29.6975 43.3809 28.8246C44.8539 27.1169 46.9999 26.1177 49.2836 26.1177H49.2851H49.2871C52.8329 26.1177 55.8565 28.4748 56.7865 31.7775L45.0458 31.7777ZM60.162 34.6004L60.1688 36.6732C60.1722 37.2024 60.1151 37.7061 59.9978 38.1912C59.819 37.9125 59.6024 37.6461 59.3506 37.3923C59.0532 37.0957 58.722 36.8521 58.3674 36.6602C58.9973 35.9714 59.5933 35.285 60.162 34.6004ZM5.93052 14.9497C6.72124 9.50914 9.99942 5.26095 14.9037 3.43458C21.2888 1.05553 28.6765 3.27037 34.6649 9.36016C34.8843 9.5837 35.1858 9.70997 35.4997 9.70997C35.8144 9.70997 36.1152 9.5837 36.336 9.36016C42.3244 3.27037 49.7113 1.05553 56.0964 3.43458C60.9994 5.25963 64.2761 9.50914 65.0696 14.9497C63.6966 15.0332 60.0914 15.9578 60.119 23.3289L60.1473 30.8064C59.8582 31.2051 59.558 31.6047 59.2448 32.0077C58.5982 28.5978 56.28 25.8413 53.2006 24.5559C54.3024 23.5147 54.9925 22.0429 54.9925 20.4111C54.9925 17.264 52.432 14.7036 49.2851 14.7036C46.1387 14.7036 43.5782 17.2642 43.5782 20.4111C43.5782 22.0442 44.2696 23.5174 45.3728 24.5592C43.9769 25.1422 42.7198 26.0358 41.7 27.1839C41.0044 26.6478 40.2372 26.2015 39.4154 25.8586C40.5167 24.8173 41.2066 23.3449 41.2066 21.7132C41.2066 18.5669 38.646 16.0063 35.4997 16.0063C32.3534 16.0063 29.7943 18.5669 29.7943 21.7132C29.7943 23.345 30.4829 24.8175 31.584 25.8586C30.7623 26.2015 29.995 26.648 29.2989 27.1839C28.2791 26.0358 27.0227 25.1422 25.6281 24.5592C26.7314 23.5173 27.4214 22.0442 27.4214 20.4111C27.4214 17.264 24.8622 14.7036 21.7152 14.7036C18.5676 14.7036 16.0084 17.2642 16.0084 20.4111C16.0084 22.0429 16.6983 23.5147 17.7981 24.5559C14.7208 25.8413 12.4003 28.5978 11.7559 32.0077C11.4405 31.6047 11.1418 31.2052 10.8521 30.8064L10.8811 23.3289C10.9095 15.9578 7.30161 15.0332 5.93052 14.9497ZM57.3731 61.3076V63.3555L59.2152 63.3713C59.9797 63.3789 60.6981 63.6832 61.2369 64.231C61.7743 64.7796 62.0676 65.5013 62.06 66.2658L62.0296 69.9842C62.0144 71.5573 60.7303 72.8283 59.16 72.8283C59.1511 72.8283 59.1421 72.8283 59.1345 72.8283L39.8239 72.6628C39.0594 72.6559 38.3418 72.3509 37.8036 71.8031C37.2647 71.2552 36.9714 70.5335 36.9791 69.7683L37.0101 66.0506C37.0246 64.4775 38.3093 63.2058 39.879 63.2058H39.9045L41.397 63.2188L41.3853 53.4562C41.384 52.5407 41.4219 51.5837 41.5744 50.6349C39.944 51.7141 38.3005 52.7456 36.7081 53.6797C36.3306 53.9027 35.9146 54.0137 35.4999 54.0137C35.0852 54.0137 34.6705 53.9027 34.2931 53.6797C32.7007 52.7456 31.0551 51.7154 29.4266 50.6349C29.5778 51.5837 29.617 52.5407 29.6157 53.4562L29.604 63.2188L31.0951 63.2058C32.6786 63.1913 33.9764 64.4685 33.9896 66.0506L34.022 69.7683C34.0275 70.5335 33.7363 71.2552 33.1967 71.8031C32.6592 72.3509 31.9416 72.6559 31.1771 72.6628L11.8658 72.8283C11.8576 72.8283 11.8485 72.8283 11.8409 72.8283C10.2691 72.8283 8.98428 71.5574 8.97124 69.9842L8.93887 66.2658C8.9333 65.5013 9.22583 64.7796 9.76402 64.231C10.3015 63.6832 11.0191 63.3789 11.7836 63.3713L13.628 63.3555V61.3076L2.86006 50.5377C1.02754 48.7072 0.0973669 46.3971 0.169144 43.8572L0.864652 19.2911C0.90889 17.7076 2.01206 16.2386 3.50459 15.4803C3.83096 12.2354 4.93912 9.24561 6.72886 6.79625C8.58145 4.26192 11.1247 2.34034 14.0868 1.23702C17.4862 -0.0297777 21.273 -0.169231 25.0362 0.832722C28.7248 1.81593 32.3225 3.9045 35.4997 6.89908C38.6784 3.9045 42.2761 1.81593 45.9647 0.832722C49.7264 -0.169084 53.5125 -0.0297777 56.9141 1.23702C59.8749 2.34034 62.4188 4.26192 64.2694 6.79478C66.0634 9.24561 67.1673 12.2367 67.4985 15.4845C68.9888 16.2429 70.0929 17.7098 70.1342 19.2912L70.831 43.8574C70.9 46.3971 69.9685 48.7073 68.1401 50.5378L57.3731 61.3076ZM27.8679 68.3799C27.6319 67.7865 27.9216 67.1159 28.5137 66.8799C29.1071 66.6439 29.7777 66.9338 30.0137 67.5257C30.2497 68.1191 29.9613 68.7912 29.3679 69.0272C28.7746 69.2632 28.1039 68.9733 27.8679 68.3799Z" fill="black"/>
</svg>
