<svg width="73" height="74" viewBox="0 0 73 74" fill="none" xmlns="http://www.w3.org/2000/svg">
<path d="M45.374 68.3613H28.5049L30.4443 62.54L31.127 60.4893H42.752L43.4346 62.54L45.374 68.3613Z" fill="#71C1E8"/>
<path d="M43.4346 62.54H30.4443L31.127 60.4893H42.752L43.4346 62.54Z" fill="#4BA4C7"/>
<path d="M72.1719 27.0176V57.5596C72.1719 59.1776 70.8602 60.4893 69.2422 60.4893H4.63672C3.01865 60.4893 1.70703 59.1776 1.70703 57.5596V27.0176C1.70703 25.3995 3.01865 24.0879 4.63672 24.0879H15.3447C15.1953 25.5352 15.1924 27.0088 15.3447 28.4824C15.4326 29.376 15.5791 30.2695 15.7812 31.1572L13.0303 32.748C12.5059 33.0498 12.3271 33.7207 12.6289 34.2451L17.8906 43.3594C18.1953 43.8838 18.8633 44.0625 19.3877 43.7607L22.1445 42.1699C24.4121 44.2793 27.1309 45.9111 30.1396 46.9043V50.2207C30.1396 50.8274 30.6315 51.3193 31.2383 51.3193H42.6436C43.2488 51.3193 43.7393 50.8289 43.7393 50.2236V46.9043C46.748 45.9111 49.4668 44.2793 51.7344 42.1699L54.4912 43.7607C55.0156 44.0625 55.6836 43.8838 55.9883 43.3594L61.25 34.2451C61.5518 33.7207 61.373 33.0498 60.8486 32.748L58.0976 31.1572C58.2998 30.2812 58.4463 29.3877 58.5342 28.4824C58.6836 27.0352 58.6865 25.5615 58.5342 24.0879H69.2422C70.8602 24.0879 72.1719 25.3995 72.1719 27.0176Z" fill="#71C1E8"/>
<path d="M50.8408 72.787H23.0381C21.8164 72.787 20.8262 71.7968 20.8262 70.5751V70.5728C20.8262 69.3511 21.8164 68.3608 23.0381 68.3608H50.8408C52.0625 68.3608 53.0527 69.3511 53.0527 70.5728V70.5751C53.0527 71.7968 52.0625 72.787 50.8408 72.787Z" fill="#71C1E8"/>
<path d="M36.9394 40.0895C44.5634 40.0895 50.7438 33.9091 50.7438 26.2851C50.7438 18.6612 44.5634 12.4807 36.9394 12.4807C29.3154 12.4807 23.135 18.6612 23.135 26.2851C23.135 33.9091 29.3154 40.0895 36.9394 40.0895Z" fill="#EEEEEE"/>
<path d="M67.7773 29.3613V55.2158C67.7773 55.7013 67.3839 56.0947 66.8984 56.0947H6.98047C6.49502 56.0947 6.10156 55.7013 6.10156 55.2158V29.3613C6.10156 28.8759 6.49502 28.4824 6.98047 28.4824H15.3447C15.4326 29.376 15.5791 30.2695 15.7812 31.1572L13.0303 32.748C12.5059 33.0498 12.3271 33.7207 12.6289 34.2451L17.8906 43.3594C18.1953 43.8838 18.8633 44.0625 19.3877 43.7607L22.1445 42.1699C24.4121 44.2793 27.1309 45.9111 30.1396 46.9043V50.2207C30.1396 50.8274 30.6315 51.3193 31.2383 51.3193H42.6436C43.2488 51.3193 43.7393 50.8289 43.7393 50.2236V46.9043C46.748 45.9111 49.4668 44.2793 51.7344 42.1699L54.4912 43.7607C55.0156 44.0625 55.6836 43.8838 55.9883 43.3594L61.25 34.2451C61.5518 33.7207 61.373 33.0498 60.8486 32.748L58.0977 31.1572C58.2998 30.2812 58.4463 29.3877 58.5342 28.4824H66.8984C67.3839 28.4824 67.7773 28.8759 67.7773 29.3613Z" fill="#EFBF27"/>
<path d="M63.0284 35.2676L57.7637 44.3848C56.8992 45.8798 54.9747 46.4074 53.4688 45.5391L51.9776 44.6777C50.1143 46.1982 48.0137 47.4404 45.7901 48.3369V50.2207C45.7901 51.958 44.378 53.3701 42.6436 53.3701H31.2354C29.501 53.3701 28.0889 51.958 28.0889 50.2207V48.3369C25.8653 47.4404 23.7647 46.1982 21.9014 44.6777L20.4131 45.5361C18.9017 46.4115 16.9763 45.8748 16.1182 44.3877L10.8536 35.2705C9.98639 33.7617 10.5049 31.8369 12.0079 30.9697L13.4903 30.1143C13.3634 29.3145 13.2911 28.6163 13.2852 28.4824H15.3448C15.4327 29.376 15.5792 30.2695 15.7813 31.1572L13.0303 32.748C12.5059 33.0498 12.3272 33.7207 12.629 34.2451L17.8907 43.3594C18.1954 43.8838 18.8633 44.0625 19.3878 43.7607L22.1446 42.1699C24.4122 44.2793 27.1309 45.9111 30.1397 46.9043V50.2207C30.1397 50.8271 30.629 51.3193 31.2354 51.3193H42.6436C43.2501 51.3193 43.7393 50.8271 43.7393 50.2207V46.9043C46.7481 45.9111 49.4669 44.2793 51.7344 42.1699L54.4913 43.7607C55.0157 44.0625 55.6837 43.8838 55.9883 43.3594L61.2501 34.2451C61.5518 33.7207 61.3731 33.0498 60.8487 32.748L58.0977 31.1572C58.2999 30.2812 58.4464 29.3877 58.5342 28.4824H60.5938C60.556 28.9371 60.4848 29.5336 60.3917 30.1143L61.8741 30.9727C63.3741 31.8369 63.8926 33.7617 63.0284 35.2676Z" fill="#CE9320"/>
<path d="M15.3447 24.0879C15.1953 25.5352 15.1924 27.0088 15.3447 28.4824H13.2852C13.1445 27.0322 13.1445 25.5527 13.2852 24.0879H15.3447Z" fill="#4BA4C7"/>
<path d="M60.5937 28.4824H58.5342C58.6836 27.0352 58.6865 25.5615 58.5342 24.0879H60.5937C60.7344 25.5381 60.7344 27.0176 60.5937 28.4824Z" fill="#4BA4C7"/>
<path d="M61.2499 34.2451L55.9882 43.3594C55.6835 43.8838 55.0155 44.0625 54.4911 43.7607L51.7343 42.1699C49.4667 44.2793 46.7479 45.9111 43.7391 46.9043V50.2207C43.7391 50.8271 43.2499 51.3193 42.6434 51.3193H31.2352C30.6288 51.3193 30.1395 50.8271 30.1395 50.2207V46.9043C27.1307 45.9111 24.412 44.2793 22.1444 42.1699L19.3876 43.7607C18.8632 44.0625 18.1952 43.8838 17.8905 43.3594L12.6288 34.2451C12.327 33.7207 12.5057 33.0498 13.0302 32.748L15.7811 31.1572C15.579 30.2695 15.4325 29.376 15.3446 28.4824C15.1923 27.0088 15.1952 25.5352 15.3446 24.0879C15.4325 23.1826 15.579 22.2891 15.7811 21.4131L13.0302 19.8252C12.5057 19.5205 12.327 18.8496 12.6288 18.3252L17.8905 9.21094C18.1952 8.68652 18.8632 8.50781 19.3876 8.80957L22.1444 10.4004C24.412 8.29102 27.1307 6.65918 30.1395 5.66602V2.34961C30.1395 1.74316 30.6288 1.25098 31.2352 1.25098H42.6434C43.2499 1.25098 43.7391 1.74316 43.7391 2.34961V5.66602C46.7479 6.65918 49.4667 8.29102 51.7343 10.4004L54.4911 8.80957C55.0155 8.50781 55.6835 8.68652 55.9882 9.21094L61.2499 18.3252C61.5516 18.8496 61.3729 19.5205 60.8485 19.8252L58.0975 21.4131C58.2997 22.3008 58.4462 23.1943 58.5341 24.0879C58.6864 25.5615 58.6835 27.0352 58.5341 28.4824C58.4462 29.3877 58.2997 30.2812 58.0975 31.1572L60.8485 32.748C61.3729 33.0498 61.5516 33.7207 61.2499 34.2451Z" fill="#FB5C3C"/>
<path d="M36.9394 40.0895C44.5634 40.0895 50.7438 33.9091 50.7438 26.2851C50.7438 18.6612 44.5634 12.4807 36.9394 12.4807C29.3154 12.4807 23.135 18.6612 23.135 26.2851C23.135 33.9091 29.3154 40.0895 36.9394 40.0895Z" fill="#EEEEEE"/>
<path d="M67.0636 20.2863C66.7194 18.8015 66.4917 17.8206 64.4793 17.1556C63.8102 16.9347 63.8117 15.9852 64.4793 15.7646C65.6474 15.3787 66.4914 15.0998 67.0636 12.6339C67.2385 11.8822 68.3152 11.8801 68.4907 12.6339C69.0766 15.1584 69.9555 15.3952 71.0749 15.7649C71.7441 15.9858 71.7426 16.935 71.0749 17.1556C69.9066 17.5417 69.0625 17.8209 68.4907 20.2863C68.3158 21.0412 67.2388 21.0415 67.0636 20.2863Z" fill="black"/>
<path d="M69.0605 16.4668C68.583 16.7891 68.1553 17.2314 67.7949 17.8994C67.5049 17.3838 67.0889 16.8975 66.4561 16.4785C66.96 16.1475 67.4053 15.6904 67.7803 14.9844C68.1611 15.7021 68.6035 16.1563 69.0605 16.4668Z" fill="#F0C020"/>
<path d="M5.38783 20.2863C5.04359 18.8015 4.81595 17.8206 2.80355 17.1556C2.13441 16.9347 2.13588 15.9852 2.80355 15.7646C3.97162 15.3787 4.81566 15.0998 5.38783 12.6339C5.56273 11.8822 6.63939 11.8801 6.81488 12.6339C7.40082 15.1584 8.27972 15.3952 9.39916 15.7649C10.0683 15.9858 10.0668 16.935 9.39916 17.1556C8.2308 17.5417 7.38676 17.8209 6.81488 20.2863C6.63998 21.0412 5.56303 21.0415 5.38783 20.2863Z" fill="black"/>
<path d="M7.38477 16.4668C6.90723 16.7891 6.47949 17.2314 6.11914 17.8994C5.8291 17.3838 5.41309 16.8975 4.78027 16.4785C5.28418 16.1475 5.72949 15.6904 6.10449 14.9844C6.48535 15.7021 6.92773 16.1563 7.38477 16.4668Z" fill="#F0C020"/>
<path d="M43.2841 24.5456L36.8376 30.9897C36.0134 31.8138 34.6801 31.7939 33.8759 30.9897L30.5944 27.7079C29.7832 26.8966 29.7717 25.5689 30.5944 24.7462C31.4124 23.9283 32.7381 23.9283 33.556 24.7462L35.3569 26.5471L40.3227 21.5839C41.1407 20.766 42.4664 20.766 43.2843 21.5839C44.102 22.4019 44.102 23.7276 43.2841 24.5456Z" fill="#13BF6D"/>
<path d="M36.9392 44.9383C33.3304 44.9383 29.8315 43.9111 26.8216 41.9678C26.4817 41.7484 26.3839 41.2949 26.6033 40.9554C26.823 40.6152 27.2768 40.5185 27.6158 40.7371C30.389 42.5271 33.6129 43.4734 36.9392 43.4734C52.2208 43.4734 59.8954 24.9235 49.0992 14.1256C48.813 13.8393 48.813 13.3756 49.0992 13.0899C49.3854 12.8037 49.8489 12.8037 50.1348 13.0899C61.8887 24.8438 53.465 44.9383 36.9392 44.9383ZM24.4063 40.1116C24.1825 39.9086 23.9598 39.6965 23.7442 39.4808C23.458 39.1946 23.458 38.7311 23.7442 38.4452C24.0304 38.1593 24.4939 38.159 24.7799 38.4452C24.9788 38.6441 25.1842 38.8398 25.3904 39.0267C25.6898 39.2986 25.7127 39.7618 25.4408 40.0612C25.1692 40.3609 24.7054 40.3835 24.4063 40.1116Z" fill="#FFCAC2"/>
<path d="M40.071 26.7188C39.7869 27.0056 39.7869 27.4714 40.071 27.7559C40.3596 28.0436 40.826 28.038 41.1082 27.7559C41.3926 27.4714 41.3926 27.0056 41.1082 26.7188C40.8331 26.4434 40.3497 26.4434 40.071 26.7188Z" fill="black"/>
<path d="M33.3564 31.5058C34.4568 32.6056 36.2571 32.6094 37.3555 31.5058L39.0371 29.8271C39.3172 29.547 39.328 29.0839 39.0371 28.7932C38.7588 28.5149 38.2751 28.5149 38 28.79L36.3213 30.4717C35.7696 31.0172 34.9021 30.9802 34.3935 30.4717L31.1123 27.1904C30.58 26.6581 30.5811 25.7903 31.1123 25.2659C31.6279 24.7438 32.4863 24.718 33.0371 25.2627L34.8389 27.0644C35.1139 27.3395 35.5976 27.3395 35.876 27.0644L40.8386 22.1015C41.3703 21.5698 42.2351 21.5704 42.7663 22.1015C43.3013 22.6427 43.2945 23.4949 42.7663 24.0293L42.1452 24.6504C41.8584 24.9255 41.854 25.3992 42.1452 25.6845C42.4206 25.9596 42.904 25.9596 43.1794 25.6845L43.8005 25.0635C44.9313 23.9326 44.8798 22.144 43.8005 21.0644C42.6995 19.964 40.9077 19.9611 39.8044 21.0644L35.3574 25.5117L34.0742 24.2285C32.9864 23.1401 31.1975 23.1058 30.0752 24.2285C28.9906 25.3136 28.9581 27.1069 30.0752 28.2246L33.3564 31.5058Z" fill="black"/>
<path d="M4.63672 23.3555C2.61787 23.3555 0.974609 24.999 0.974609 27.0176V57.5596C0.974609 59.5781 2.61787 61.2217 4.63672 61.2217H11.3018C11.7061 61.2217 12.0342 60.8936 12.0342 60.4893C12.0342 60.0879 11.709 59.7598 11.3076 59.7568C11.3047 59.7568 11.3018 59.7568 11.3018 59.7568H4.63672C3.42646 59.7539 2.44238 58.7695 2.43945 57.5596V27.0176C2.44238 25.8076 3.42646 24.8232 4.63672 24.8203H14.5528C14.479 25.926 14.4802 26.6552 14.5528 27.75H6.98047C6.09219 27.75 5.36914 28.473 5.36914 29.3613V55.2158C5.36914 56.1041 6.09219 56.8271 6.98047 56.8271H66.8984C67.7867 56.8271 68.5098 56.1041 68.5098 55.2158V29.3613C68.5098 28.473 67.7867 27.75 66.8984 27.75H59.3243C59.3943 26.6725 59.3967 25.9301 59.3249 24.8203H69.2422C70.4521 24.8232 71.4365 25.8076 71.4394 27.0176V57.5596C71.4365 58.7695 70.4521 59.7539 69.2422 59.7568C68.6551 59.7568 18.4815 59.7568 17.1611 59.7568C16.7565 59.7568 16.4287 60.085 16.4287 60.4893C16.4287 60.8936 16.7565 61.2217 17.1611 61.2217H30.1109L27.9769 67.6283H23.0381C21.4147 67.6283 20.0937 68.9493 20.0937 70.575C20.0937 72.1986 21.4147 73.5196 23.0381 73.5196H50.8408C52.4642 73.5196 53.7851 72.1986 53.7851 70.5727C53.7851 68.9493 52.4642 67.6283 50.8408 67.6283H45.9019L43.768 61.2217H69.2422C71.2607 61.2217 72.9043 59.5781 72.9043 57.5596V27.0176C72.9043 24.999 71.2607 23.3555 69.2422 23.3555H59.1813C59.1128 22.8308 59.0322 22.3043 58.9268 21.7793L61.2148 20.458C62.0738 19.9597 62.3937 18.8528 61.8857 17.959L56.6211 8.84473C56.1081 7.96084 54.981 7.67519 54.125 8.17705L51.831 9.49834C49.6631 7.57617 47.1872 6.11133 44.4717 5.14482V2.34961C44.4687 1.33887 43.6481 0.518555 42.6436 0.518555H31.2353C30.2302 0.518555 29.4102 1.33887 29.4072 2.34961V5.14453C28.9853 5.29394 28.5603 5.45801 28.1475 5.63701C27.7807 5.79082 27.5999 6.21357 27.7607 6.59766C27.916 6.95801 28.3584 7.13994 28.7217 6.98438C28.7246 6.98438 28.7246 6.98145 28.7275 6.98145C29.2754 6.74707 29.8262 6.53877 30.3682 6.36328C30.6699 6.26074 30.8724 5.98242 30.8724 5.66602V2.34961C30.8724 2.14775 31.0364 1.9834 31.2356 1.9834H42.6436C42.8428 1.9834 43.0068 2.14775 43.0068 2.34961V5.66602C43.0068 5.98242 43.2087 6.26074 43.5107 6.36328C46.3555 7.30078 49.0273 8.88281 51.2363 10.9365C51.4648 11.1501 51.8281 11.1914 52.1006 11.0332L54.8574 9.44531C55.0218 9.346 55.2488 9.39463 55.3552 9.58008L60.614 18.6914C60.7197 18.8833 60.6479 19.0931 60.4792 19.1924L57.7311 20.7803C57.456 20.9385 57.3122 21.2666 57.3828 21.5772C58.0953 24.694 58.0874 27.9533 57.3828 30.9935C57.3125 31.3011 57.4528 31.6321 57.7311 31.7903L60.4821 33.3812C60.6629 33.4878 60.7124 33.7046 60.614 33.8821L55.3522 42.9937C55.2614 43.1505 55.0525 43.234 54.8542 43.1256L52.1006 41.5345C51.8278 41.3795 51.4648 41.4202 51.2363 41.6341C49.0273 43.6881 46.3555 45.2698 43.5107 46.2073C43.209 46.3069 43.0068 46.5882 43.0068 46.9046V50.221C43.0068 50.4261 42.8457 50.5872 42.6436 50.5872H31.2353C31.0332 50.5872 30.8721 50.4261 30.8721 50.221V46.9043C30.8721 46.5879 30.6699 46.3066 30.3679 46.207C27.5231 45.2695 24.8516 43.6875 22.6426 41.6338C22.4141 41.4202 22.0505 41.3792 21.7783 41.5342L19.0215 43.1253C18.8346 43.2328 18.6207 43.1552 18.5234 42.9905L13.2646 33.8789C13.17 33.7298 13.2046 33.4934 13.3936 33.3841L16.1475 31.7903C16.4255 31.6292 16.5664 31.3099 16.4958 30.9935C15.8091 28.0005 15.7663 24.7248 16.4958 21.5772C16.5661 21.2607 16.4287 20.9414 16.1475 20.7803L13.3965 19.1895C13.2113 19.0852 13.1683 18.847 13.2617 18.6943L18.5264 9.57715C18.6271 9.39902 18.8472 9.34717 19.0215 9.44238L21.7783 11.0335C22.0508 11.1917 22.4141 11.1504 22.6426 10.9368C23.0352 10.5735 23.4482 10.2161 23.876 9.87627C24.1892 9.62432 24.2422 9.16436 23.9902 8.84795C23.75 8.54004 23.2695 8.48467 22.9619 8.73076C22.6484 8.97978 22.3408 9.2376 22.0478 9.49834L19.7539 8.17383C18.8653 7.66875 17.7564 7.97813 17.2575 8.84473L11.9932 17.959C11.4948 18.8271 11.7837 19.9462 12.6611 20.458L14.9521 21.7793C14.8467 22.2981 14.7658 22.8264 14.6976 23.3555H4.63672ZM52.3203 70.575C52.3203 71.3909 51.6564 72.0548 50.8408 72.0548H23.0381C22.2225 72.0548 21.5586 71.3909 21.5586 70.5727C21.5586 69.757 22.2225 69.0932 23.0381 69.0932H50.8408C51.6564 69.0932 52.3203 69.757 52.3203 70.575ZM44.358 67.6283H29.5212L31.6552 61.2217H42.2237L44.358 67.6283ZM12.6641 32.1152C11.7925 32.6118 11.4904 33.7269 11.9932 34.6113L17.2578 43.7256C17.7576 44.5896 18.8706 44.9021 19.7513 44.3965L22.0481 43.072C24.2158 44.9909 26.6917 46.459 29.4075 47.4255V50.2204C29.4104 51.2312 30.2308 52.0515 31.2356 52.0515H42.6436C43.6484 52.0515 44.4687 51.2312 44.4717 50.2204V47.4255C47.1875 46.4555 49.6657 44.9906 51.831 43.072L54.125 44.3936C54.9966 44.8983 56.1113 44.6019 56.6211 43.7282L61.8828 34.611C62.3914 33.723 62.0838 32.6118 61.2148 32.112L58.9268 30.7907C59.0322 30.2701 59.1128 29.7428 59.1813 29.2146H66.8984C66.979 29.2146 67.0449 29.2805 67.0449 29.361V55.2155C67.0449 55.2961 66.979 55.362 66.8984 55.362H6.98047C6.8999 55.362 6.83398 55.2961 6.83398 55.2155V29.361C6.83398 29.2805 6.8999 29.2146 6.98047 29.2146H14.6976C14.7658 29.7378 14.8467 30.2643 14.9521 30.7907L12.6641 32.1152Z" fill="black"/>
<path d="M14.2314 61.2217C14.636 61.2217 14.9639 60.8938 14.9639 60.4893C14.9639 60.0848 14.636 59.7568 14.2314 59.7568C13.8269 59.7568 13.499 60.0848 13.499 60.4893C13.499 60.8938 13.8269 61.2217 14.2314 61.2217Z" fill="black"/>
<path d="M26.2022 8.26472C26.5482 8.05964 26.6621 7.60847 26.4541 7.26277C26.2549 6.92849 25.7862 6.80867 25.4493 7.00789C25.1033 7.21589 24.9893 7.66707 25.1973 8.01277C25.4074 8.36257 25.8632 8.47361 26.2022 8.26472Z" fill="black"/>
<path d="M36.9394 40.8222C44.955 40.8222 51.4762 34.301 51.4762 26.2854C51.4762 18.2697 44.955 11.7485 36.9394 11.7485C28.9238 11.7485 22.4026 18.2694 22.4026 26.2854C22.4026 34.3013 28.9238 40.8222 36.9394 40.8222ZM36.9394 13.2134C44.1476 13.2134 50.0114 19.0774 50.0114 26.2854C50.0114 33.4933 44.1476 39.3573 36.9394 39.3573C29.7312 39.3573 23.8674 33.4933 23.8674 26.2854C23.8674 19.0774 29.7312 13.2134 36.9394 13.2134Z" fill="black"/>
</svg>
