<svg width="75" height="75" viewBox="0 0 75 75" fill="none" xmlns="http://www.w3.org/2000/svg">
<path fill-rule="evenodd" clip-rule="evenodd" d="M6.37377 56.9054L15.1466 51.8227C16.7931 50.8688 18.4672 50.1925 20.2769 50.7796C22.2946 51.4339 25.5893 52.839 28.9494 53.4449C30.1965 53.8492 30.9741 55.0981 30.6348 56.3643C30.2954 57.6308 29.2253 58.2837 27.7154 58.0502L28.8899 58.2381C30.2358 58.4535 31.472 58.2692 32.65 57.5832L41.0847 52.6704C47.6412 48.8519 48.6042 54.7265 46.4242 56.0686L31.1175 65.4938C29.7096 66.3604 28.1692 66.5627 26.5722 66.1347L15.4697 63.1597L11.358 65.5337C10.5675 65.9901 9.55043 65.7176 9.09398 64.9271L5.76908 59.1682C5.31322 58.3785 5.58466 57.3626 6.37377 56.9054Z" fill="#F6DCCD"/>
<path fill-rule="evenodd" clip-rule="evenodd" d="M30.4347 56.8896C29.9658 57.8058 28.9999 58.2488 27.7154 58.0502C25.8968 57.5692 24.0802 57.0762 22.2631 56.5893C21.7765 56.4589 21.4876 55.9585 21.618 55.4719C21.7483 54.9851 22.2487 54.6962 22.7353 54.8268L30.4347 56.8896Z" fill="#F1CBBC"/>
<path fill-rule="evenodd" clip-rule="evenodd" d="M6.37348 56.9054L15.1464 51.8227C16.7929 50.8688 18.4671 50.1925 20.2768 50.7796C21.3562 51.1297 22.8013 51.6945 24.4262 52.2371L7.43198 62.0488L5.76894 59.1683C5.31293 58.3785 5.58437 57.3626 6.37348 56.9054Z" fill="#F1CBBC"/>
<path fill-rule="evenodd" clip-rule="evenodd" d="M7.39236 54.3773L14.3499 66.6708C14.6864 67.2653 14.4752 68.0268 13.8807 68.3633L11.5141 69.7026C10.9197 70.0391 10.1581 69.8279 9.8218 69.2336L2.86423 56.94C2.5279 56.3456 2.73884 55.584 3.33342 55.2476L5.70002 53.9082C6.29431 53.5718 7.05588 53.7829 7.39236 54.3773Z" fill="#D1D1D6"/>
<path fill-rule="evenodd" clip-rule="evenodd" d="M11.0518 62.8238L12.2833 64.9997L13.501 67.1514C13.8367 67.7445 13.6271 68.5043 13.0356 68.8416L13.881 68.3632C14.4754 68.0267 14.6865 67.2652 14.3501 66.6707L13.1282 64.5119L10.6747 60.1767L8.21846 55.8368L7.39243 54.3772C7.10107 53.8623 6.49053 53.6351 5.94604 53.8022L7.37617 56.3291L9.82964 60.6642L11.0515 62.8232L11.0518 62.8238Z" fill="#B1B1B5"/>
<path fill-rule="evenodd" clip-rule="evenodd" d="M16.8055 28.7305C14.84 28.7305 12.8745 28.7305 10.9089 28.7305C10.5055 28.7305 10.1765 29.0595 10.1765 29.4629V46.0903H17.5378C17.5378 40.1133 17.5378 35.3444 17.5378 29.4629C17.5379 29.0593 17.2089 28.7305 16.8055 28.7305Z" fill="#FE646F"/>
<path fill-rule="evenodd" clip-rule="evenodd" d="M16.8054 28.7305H15.3406C15.744 28.7305 16.073 29.0595 16.073 29.4629V46.0903H17.5378C17.5378 40.1133 17.5378 35.3444 17.5378 29.4629C17.5378 29.0593 17.2088 28.7305 16.8054 28.7305Z" fill="#FD4755"/>
<path fill-rule="evenodd" clip-rule="evenodd" d="M29.038 22.4983H23.1416C22.7382 22.4983 22.4092 22.8273 22.4092 23.2307V46.0903H29.7705V23.2306C29.7705 22.8273 29.4415 22.4983 29.038 22.4983Z" fill="#6CF5C2"/>
<path fill-rule="evenodd" clip-rule="evenodd" d="M29.0381 22.4983H27.5732C27.9767 22.4983 28.3057 22.8273 28.3057 23.2307V46.0903H29.7705V23.2306C29.7705 22.8273 29.4415 22.4983 29.0381 22.4983Z" fill="#00E499"/>
<path fill-rule="evenodd" clip-rule="evenodd" d="M37.9393 6.24066L31.0253 14.0776C30.7477 14.3919 30.9794 14.8737 31.4082 14.8737H34.6284V32.0065C34.6284 36.6997 34.6415 41.3959 34.6415 46.0903H42.003C42.003 41.3959 42.016 36.6999 42.016 32.0065V14.8737H45.2362C45.6649 14.8737 45.8967 14.3921 45.6191 14.0776L38.7049 6.24066C38.5042 6.01346 38.1397 6.0136 37.9393 6.24066Z" fill="#8AC9FE"/>
<path fill-rule="evenodd" clip-rule="evenodd" d="M37.9393 6.24066L37.5896 6.63704L44.154 14.0776C44.4316 14.3921 44.1999 14.8737 43.7711 14.8737H45.2359C45.6647 14.8737 45.8964 14.3921 45.6188 14.0776L38.7046 6.24066C38.5041 6.01346 38.1396 6.0136 37.9393 6.24066ZM40.5377 46.0901C40.5377 41.3957 40.5508 36.6997 40.5508 32.0064V14.8736H42.0156V32.0064C42.0156 36.6996 42.0026 41.3957 42.0026 46.0901H40.5377Z" fill="#60B7FF"/>
<path fill-rule="evenodd" clip-rule="evenodd" d="M69.6488 18.3049C64.9855 18.3049 61.1605 21.8923 60.782 26.458C61.257 26.5363 61.7444 26.5778 62.2417 26.5778C66.905 26.5778 70.73 22.9904 71.1085 18.4248C70.6335 18.3464 70.146 18.3049 69.6488 18.3049Z" fill="#6CF5C2"/>
<path fill-rule="evenodd" clip-rule="evenodd" d="M61.019 25.0291C60.9027 25.4921 60.8224 25.9693 60.782 26.458C61.257 26.5364 61.7444 26.5778 62.2417 26.5778C66.905 26.5778 70.73 22.9904 71.1085 18.4248C71.0299 18.4118 70.9508 18.3999 70.8714 18.3889C69.9012 22.2523 66.4058 25.113 62.2416 25.113C61.8267 25.113 61.4188 25.0841 61.019 25.0291Z" fill="#00E499"/>
<path fill-rule="evenodd" clip-rule="evenodd" d="M51.915 18.3049C56.5784 18.3049 60.4034 21.8923 60.7819 26.458C60.3068 26.5363 59.8193 26.5778 59.3222 26.5778C54.6588 26.5778 50.8338 22.9904 50.4553 18.4248C50.9304 18.3464 51.4179 18.3049 51.915 18.3049Z" fill="#6CF5C2"/>
<path fill-rule="evenodd" clip-rule="evenodd" d="M60.5449 25.0291C60.6612 25.4921 60.7415 25.9693 60.7819 26.458C60.3068 26.5364 59.8193 26.5778 59.3222 26.5778C54.6588 26.5778 50.8338 22.9904 50.4553 18.4248C50.534 18.4118 50.6131 18.3999 50.6925 18.3889C51.6626 22.2523 55.1581 25.113 59.3223 25.113C59.737 25.113 60.1451 25.0841 60.5449 25.0291Z" fill="#00E499"/>
<path fill-rule="evenodd" clip-rule="evenodd" d="M61.6907 5.88794C64.8682 9.42642 64.4162 14.5043 60.7819 17.5605C60.3914 17.2477 60.0239 16.903 59.685 16.5256C56.5075 12.9872 56.9596 7.90913 60.5938 4.85303C60.9844 5.16577 61.3519 5.5106 61.6907 5.88794Z" fill="#6CF5C2"/>
<path fill-rule="evenodd" clip-rule="evenodd" d="M63.781 10.5438C64.0247 13.0964 62.9917 15.7022 60.7819 17.5605C60.3913 17.2477 60.0238 16.903 59.685 16.5256C58.07 14.7271 57.3931 12.531 57.5947 10.4048C57.7518 12.0504 58.4394 13.6739 59.685 15.0608C60.0238 15.4381 60.3913 15.7828 60.7819 16.0957C62.5691 14.5928 63.586 12.601 63.781 10.5438Z" fill="#00E499"/>
<path fill-rule="evenodd" clip-rule="evenodd" d="M53.9504 35.9329C52.7548 35.9329 51.7766 34.9547 51.7766 33.7592V32.1634C51.7766 30.9678 52.7548 29.9897 53.9504 29.9897H67.6132C68.8086 29.9897 69.7869 30.9678 69.7869 32.1634V33.7592C69.7869 34.9548 68.8086 35.9329 67.6132 35.9329C68.8086 35.9329 69.7869 36.9111 69.7869 38.1066V39.7025C69.7869 40.8981 68.8086 41.8762 67.6132 41.8762C68.8086 41.8762 69.7869 42.8544 69.7869 44.0499V45.6458C69.7869 46.8415 68.8086 47.8195 67.6132 47.8195C68.8086 47.8195 69.7869 48.7978 69.7869 49.9932V51.5892C69.7869 52.7848 68.8086 53.7628 67.6132 53.7628C68.8086 53.7628 69.7869 54.7409 69.7869 55.9365V57.5325C69.7869 58.7281 68.8086 59.7062 67.6132 59.7062H53.9504C52.7548 59.7062 51.7766 58.7279 51.7766 57.5325V55.9365C51.7766 54.7409 52.7548 53.7628 53.9504 53.7628C52.7548 53.7628 51.7766 52.7848 51.7766 51.5892V49.9932C51.7766 48.7976 52.7548 47.8195 53.9504 47.8195C52.7548 47.8195 51.7766 46.8415 51.7766 45.6458V44.0499C51.7766 42.8543 52.7548 41.8762 53.9504 41.8762C52.7548 41.8762 51.7766 40.8981 51.7766 39.7025V38.1067C51.7768 36.9111 52.7548 35.9329 53.9504 35.9329Z" fill="#FFE177"/>
<path fill-rule="evenodd" clip-rule="evenodd" d="M66.1484 29.9893H67.6133C68.8087 29.9893 69.787 30.9673 69.787 32.1629V33.7587C69.787 34.9543 68.8087 35.9324 67.6133 35.9324C68.8087 35.9324 69.787 36.9106 69.787 38.1061V39.702C69.787 40.8977 68.8087 41.8757 67.6133 41.8757C68.8087 41.8757 69.787 42.854 69.787 44.0494V45.6454C69.787 46.841 68.8087 47.819 67.6133 47.819C68.8087 47.819 69.787 48.7973 69.787 49.9927V51.5887C69.787 52.7843 68.8087 53.7624 67.6133 53.7624C68.8087 53.7624 69.787 54.7404 69.787 55.936V57.532C69.787 58.7276 68.8087 59.7057 67.6133 59.7057H66.1484C67.3439 59.7057 68.3221 58.7274 68.3221 57.532V55.936C68.3221 54.7404 67.3439 53.7624 66.1484 53.7624C67.3439 53.7624 68.3221 52.7843 68.3221 51.5887V49.9927C68.3221 48.7971 67.3439 47.819 66.1484 47.819C67.3439 47.819 68.3221 46.841 68.3221 45.6454V44.0494C68.3221 42.8538 67.3439 41.8757 66.1484 41.8757C67.3439 41.8757 68.3221 40.8977 68.3221 39.702V38.1064C68.3221 36.9108 67.3439 35.9327 66.1484 35.9327C67.3439 35.9327 68.3221 34.9545 68.3221 33.759V32.1632C68.3221 30.9675 67.3439 29.9893 66.1484 29.9893Z" fill="#FFD064"/>
<path fill-rule="evenodd" clip-rule="evenodd" d="M67.6132 35.9326H53.9504C52.7548 35.9326 51.7766 36.9108 51.7766 38.1063V39.7022C51.7766 40.8979 52.7548 41.8759 53.9504 41.8759H67.6132C68.8086 41.8759 69.7869 40.8979 69.7869 39.7022V38.1064C69.7869 36.9108 68.8088 35.9326 67.6132 35.9326Z" fill="#FFC338"/>
<path fill-rule="evenodd" clip-rule="evenodd" d="M67.6133 35.9326H66.1484C67.3439 35.9326 68.3221 36.9108 68.3221 38.1063V39.7022C68.3221 40.8979 67.3439 41.8759 66.1484 41.8759H67.6133C68.8087 41.8759 69.787 40.8979 69.787 39.7022V38.1064C69.787 36.9108 68.8089 35.9326 67.6133 35.9326Z" fill="#F5B829"/>
<path fill-rule="evenodd" clip-rule="evenodd" d="M67.6132 47.8193H53.9504C52.7548 47.8193 51.7766 48.7976 51.7766 49.993V51.589C51.7766 52.7846 52.7548 53.7626 53.9504 53.7626H67.6132C68.8086 53.7626 69.7869 52.7846 69.7869 51.589V49.993C69.7869 48.7974 68.8088 47.8193 67.6132 47.8193Z" fill="#FFC338"/>
<path fill-rule="evenodd" clip-rule="evenodd" d="M67.6133 47.8193H66.1484C67.3439 47.8193 68.3221 48.7976 68.3221 49.993V51.589C68.3221 52.7846 67.3439 53.7626 66.1484 53.7626H67.6133C68.8087 53.7626 69.787 52.7846 69.787 51.589V49.993C69.787 48.7974 68.8089 47.8193 67.6133 47.8193Z" fill="#F5B829"/>
<path d="M65.7225 69.872C70.5616 68.7281 73.5572 63.8779 72.4133 59.0388C71.2694 54.1997 66.4192 51.2041 61.5801 52.348C56.741 53.4919 53.7454 58.3421 54.8893 63.1812C56.0332 68.0203 60.8834 71.0159 65.7225 69.872Z" fill="#FFC338"/>
<path fill-rule="evenodd" clip-rule="evenodd" d="M63.6521 52.1357C68.6255 52.1357 72.6572 56.1674 72.6572 61.1409C72.6572 66.1143 68.6255 70.146 63.6521 70.146C63.3923 70.146 63.1353 70.1343 62.8811 70.1127C67.4935 69.7215 71.1153 65.8546 71.1153 61.1409C71.1153 56.4271 67.4935 52.5601 62.8811 52.169C63.1353 52.1475 63.3922 52.1357 63.6521 52.1357Z" fill="#F5B829"/>
<path fill-rule="evenodd" clip-rule="evenodd" d="M11.3479 29.903H16.3653V44.9185H11.3479V29.903ZM23.5816 23.6714H28.5982V44.9185H23.5816V23.6714ZM35.8067 30.4815C35.8026 25.2799 35.7991 20.0765 35.7991 14.8735C35.7991 14.2276 35.2751 13.7014 34.6277 13.7014H32.9191L38.3219 7.57877L43.7239 13.7014H42.0162C41.3687 13.7014 40.844 14.2274 40.844 14.8735C40.844 20.0764 40.8399 25.2799 40.8372 30.4815C40.8336 35.2933 40.831 40.1067 40.831 44.9185H35.8129C35.813 40.1067 35.8095 35.2933 35.8067 30.4815ZM48.2898 44.9185H43.1746C43.1746 40.1067 43.178 35.2946 43.1808 30.4828C43.1835 25.6709 43.1863 20.8589 43.1876 16.045H45.2361C45.8966 16.045 46.4972 15.6616 46.7654 15.0653C47.0329 14.469 46.9309 13.7938 46.4972 13.3029L39.5831 5.46618C39.2652 5.10553 38.8054 4.89943 38.322 4.89943C37.8388 4.89943 37.3788 5.10553 37.0609 5.46618L30.1467 13.3029C29.7117 13.7938 29.609 14.4688 29.8785 15.0653C30.1467 15.6616 30.7473 16.045 31.4078 16.045H33.4555C33.4568 20.8589 33.4596 25.6709 33.4631 30.4828C33.4659 35.2946 33.4685 40.1067 33.4685 44.9185H30.9415V22.4992C30.9415 21.8518 30.4176 21.3278 29.7701 21.3278H22.4091C21.7617 21.3278 21.237 21.8518 21.237 22.4992V44.9185H18.7086V28.7308C18.7086 28.0834 18.1847 27.5594 17.5372 27.5594H10.1765C9.52904 27.5594 9.00434 28.0834 9.00434 28.7308V44.9185H6.56991C5.92245 44.9185 5.39774 45.4432 5.39774 46.0907C5.39774 46.7381 5.92245 47.2629 6.56991 47.2629H48.29C48.9374 47.2629 49.4622 46.7381 49.4622 46.0907C49.4622 45.4432 48.9373 44.9185 48.2898 44.9185ZM67.6879 63.1078C67.7934 63.9738 67.5583 64.766 67.0094 65.4003C66.4999 65.9891 65.72 66.4152 64.8237 66.6145V66.8399C64.8237 67.4881 64.2997 68.0121 63.6515 68.0121C63.0041 68.0121 62.4801 67.4881 62.4801 66.8399V66.5938C61.0535 66.2339 59.9689 65.2258 59.625 63.8477C59.4685 63.2195 59.8504 62.5832 60.4792 62.4266C61.1074 62.2715 61.7431 62.6521 61.8996 63.2809C62.1105 64.1304 63.0234 64.4131 63.7412 64.3938C64.3652 64.3793 64.9801 64.1622 65.2366 63.867C65.32 63.7712 65.3917 63.6471 65.3614 63.3905C65.3304 63.1416 65.2601 62.5583 63.4702 62.2652C60.4674 61.7715 59.94 60.0581 59.8932 59.0797C59.8152 57.5036 60.8468 56.1742 62.4801 55.7102V55.442C62.4801 54.796 63.0041 54.2705 63.6515 54.2705C64.2997 54.2705 64.8237 54.796 64.8237 55.442V55.6998C65.8751 55.9866 66.8556 56.6947 67.3831 57.9517C67.6333 58.5487 67.3535 59.2362 66.7557 59.4864C66.1599 59.7373 65.4726 59.4553 65.2223 58.8596C64.8065 57.8695 63.7737 57.8137 63.2283 57.9385C62.9856 57.9922 62.1975 58.2294 62.2341 58.9665C62.2431 59.1465 62.2693 59.6932 63.8496 59.9525C66.1889 60.3361 67.4809 61.3979 67.6879 63.1078ZM63.6517 68.9746C67.9706 68.9746 71.4849 65.4603 71.4849 61.1421C71.4849 56.8218 67.9706 53.3081 63.6517 53.3081C59.332 53.3081 55.8177 56.8217 55.8177 61.1421C55.8177 65.4603 59.332 68.9746 63.6517 68.9746ZM52.948 57.5327V55.9372C52.948 55.3835 53.3983 54.9354 53.9506 54.9354H55.5937C54.7809 55.9889 54.1686 57.2031 53.8168 58.5243C53.3279 58.46 52.948 58.0394 52.948 57.5327ZM52.948 49.9932C52.948 49.4409 53.3983 48.9914 53.9506 48.9914H67.6127C68.165 48.9914 68.6153 49.4409 68.6153 49.9932V51.59C68.6153 51.7976 68.5478 51.994 68.4319 52.1595C67.0053 51.3977 65.3789 50.9647 63.6517 50.9647C61.6218 50.9647 59.732 51.5632 58.1427 52.5918H53.9506C53.3983 52.5918 52.948 52.1415 52.948 51.59V49.9932ZM52.948 44.0505C52.948 43.4982 53.3983 43.0479 53.9506 43.0479H67.6127C68.165 43.0479 68.6153 43.4982 68.6153 44.0505V45.6452C68.6153 46.1989 68.165 46.647 67.6127 46.647H53.9506C53.3983 46.647 52.948 46.1989 52.948 45.6452V44.0505ZM52.948 38.1071C52.948 37.5536 53.3983 37.1053 53.9506 37.1053H67.6127C68.165 37.1053 68.6153 37.5534 68.6153 38.1071V39.7026C68.6153 40.2549 68.165 40.7045 67.6127 40.7045H53.9506C53.3983 40.7045 52.948 40.2549 52.948 39.7026V38.1071ZM52.948 32.1631C52.948 31.6109 53.3983 31.1613 53.9506 31.1613H67.6127C68.165 31.1613 68.6153 31.6109 68.6153 32.1631V33.7599C68.6153 34.3122 68.165 34.7617 67.6127 34.7617H53.9506C53.3983 34.7617 52.948 34.3122 52.948 33.7599V32.1631ZM51.8077 19.4773H51.9145C54.7869 19.4773 57.3442 21.092 58.6728 23.4763L56.332 21.7746C55.808 21.3933 55.075 21.5091 54.6944 22.0339C54.3131 22.5565 54.429 23.2886 54.9537 23.6699L56.7029 24.9413C54.2973 24.0624 52.4178 22.0145 51.8077 19.4773ZM58.7479 10.6766C58.8562 9.11979 59.5105 7.64909 60.6137 6.45216C60.6827 6.52379 60.7516 6.59689 60.8178 6.67145H60.8185C62.1127 8.11315 62.7553 9.91198 62.6277 11.737C62.5664 12.6058 62.3368 13.4469 61.9527 14.2289V11.2069C61.9527 10.5594 61.428 10.0355 60.7806 10.0355C60.1346 10.0355 59.6091 10.5594 59.6091 11.2069V14.424C58.9583 13.2678 58.6557 11.9792 58.7479 10.6766ZM69.7562 19.4773C69.1454 22.0145 67.2659 24.0624 64.8603 24.9414L66.6095 23.6701C67.1334 23.2888 67.2493 22.5565 66.8687 22.034C66.4882 21.5093 65.7553 21.3934 65.2312 21.7747L62.8904 23.4764C64.235 21.0624 66.8397 19.4408 69.7562 19.4773ZM70.3568 53.4958C72.4819 55.3615 73.8284 58.0967 73.8284 61.1421C73.8284 66.7524 69.2641 71.3182 63.6515 71.3182C58.0398 71.3182 53.4741 66.7524 53.4741 61.1421C53.4741 61.042 53.4782 60.9442 53.4817 60.8443C51.8586 60.6161 50.6044 59.2185 50.6044 57.5327V55.9372C50.6044 55.1084 50.9078 54.348 51.4083 53.7632C50.9078 53.1779 50.6044 52.4188 50.6044 51.59V49.9932C50.6044 49.1636 50.9078 48.4053 51.4083 47.8192C50.9078 47.2346 50.6044 46.4748 50.6044 45.6452V44.0505C50.6044 43.2209 50.9078 42.4605 51.4083 41.8765C50.9078 41.2919 50.6044 40.5313 50.6044 39.7025V38.107C50.6044 37.2782 50.9078 36.5178 51.4083 35.9338C50.9078 35.3477 50.6044 34.5886 50.6044 33.7598V32.163C50.6044 30.3186 52.1061 28.8175 53.9504 28.8175H59.609V27.7432C59.5139 27.746 59.4166 27.7495 59.3214 27.7495C56.7786 27.7495 54.3517 26.8002 52.4852 25.0743C50.6305 23.3575 49.4956 21.0312 49.2874 18.522C49.2364 17.9125 49.6611 17.3679 50.2645 17.2686C50.8078 17.1789 51.3635 17.1334 51.9143 17.1334C54.4571 17.1334 56.8855 18.0842 58.7506 19.8099C59.0581 20.094 59.3422 20.396 59.609 20.7104V18.1C59.329 17.8498 59.0608 17.585 58.8133 17.3091C57.0889 15.3903 56.2366 12.9764 56.4098 10.5123C56.5855 7.99567 57.8025 5.66803 59.8385 3.95592C60.268 3.59674 60.8907 3.58986 61.3258 3.93805C61.7726 4.29518 62.1883 4.6882 62.5621 5.10539C64.2845 7.0236 65.1388 9.43737 64.9656 11.9009C64.8016 14.239 63.7369 16.4157 61.9526 18.0857V20.7105C62.2208 20.3962 62.5048 20.0941 62.8123 19.8101C64.6773 18.0843 67.1058 17.1335 69.6493 17.1335C70.1982 17.1335 70.7532 17.1791 71.2986 17.2687C71.9019 17.368 72.3266 17.9127 72.2749 18.5222C72.0673 21.0312 70.9318 23.3575 69.0777 25.0744C67.2114 26.8002 64.7843 27.7497 62.2409 27.7497C62.1457 27.7497 62.0493 27.7462 61.9527 27.7434V28.8177H67.6127C69.4571 28.8177 70.9587 30.3187 70.9587 32.1631V33.7599C70.9587 34.5887 70.6554 35.3478 70.1541 35.9339C70.6554 36.5179 70.9587 37.2783 70.9587 38.1071V39.7026C70.9587 40.5315 70.6554 41.2919 70.1541 41.8766C70.6554 42.4607 70.9587 43.2211 70.9587 44.0506V45.6454C70.9587 46.4748 70.6554 47.2346 70.1541 47.8193C70.6554 48.4054 70.9587 49.1638 70.9587 49.9933V51.5901C70.9587 52.2823 70.7389 52.9448 70.3568 53.4958ZM6.44643 56.7666C6.51542 57.2355 6.19198 57.6698 5.72455 57.7381C5.25712 57.8064 4.82265 57.4829 4.7538 57.0155C4.68627 56.5466 5.01029 56.113 5.47714 56.044C5.94457 55.9757 6.37963 56.2992 6.44643 56.7666ZM46.156 55.1422L30.6502 64.6882C29.5221 65.3838 28.2818 65.557 26.9649 65.204L15.7195 62.1909C15.4189 62.1102 15.0982 62.153 14.83 62.3081L13.4813 63.0858L9.66088 56.3358L15.6752 52.8539C17.5107 51.7907 18.7413 51.5135 19.9239 51.8976C20.4361 52.0631 21.0326 52.2782 21.7206 52.5285C23.7146 53.2483 26.1884 54.1432 28.7714 54.619C29.4388 54.8666 29.8124 55.5085 29.6443 56.1366C29.5767 56.3875 29.372 57.1419 28.1309 57.0054C26.8961 56.7502 25.7143 56.4139 24.4649 56.056C23.8622 55.8851 23.2417 55.7078 22.5998 55.5348C21.9745 55.368 21.3326 55.7389 21.1643 56.3644C20.9975 56.9897 21.3684 57.6323 21.9937 57.7999C22.6157 57.9668 23.2286 58.1405 23.8201 58.3108C25.1321 58.6845 26.3718 59.039 27.7136 59.3127C27.7212 59.314 27.7294 59.3154 27.7371 59.3175C27.7447 59.3188 27.7529 59.3203 27.7605 59.3216L28.8237 59.4946C30.5115 59.7656 32.0099 59.5 33.4073 58.6872L41.9515 53.7111C44.155 52.4266 45.8802 52.2211 46.4518 53.1761C46.8543 53.8473 46.6262 54.8519 46.156 55.1422ZM13.0882 67.3253C13.1268 67.3032 13.1427 67.2461 13.1205 67.2082L6.07333 54.7554C6.06161 54.736 6.04433 54.723 6.02089 54.7154C6.01195 54.7126 6.00302 54.7126 5.99394 54.7126C5.9809 54.7126 5.96772 54.7154 5.956 54.7215L3.5579 56.0792C3.51996 56.1013 3.50414 56.1571 3.52553 56.1963L10.5735 68.6491C10.5845 68.6685 10.6025 68.6815 10.6259 68.6871C10.6507 68.6947 10.6715 68.6919 10.6907 68.6815L13.0882 67.3253ZM40.7711 51.6851L32.2284 56.6611C32.1125 56.7281 31.9968 56.79 31.8795 56.8453C31.8899 56.8122 31.8988 56.777 31.9085 56.7432C32.4021 54.9003 31.3142 52.9787 29.4304 52.3677C29.3808 52.3511 29.329 52.3381 29.2781 52.329C26.8565 51.8932 24.451 51.0225 22.5177 50.3239C21.8378 50.0778 21.1967 49.8468 20.6471 49.6675C18.3049 48.907 16.2262 49.8262 14.5003 50.8252L8.50658 54.2954L8.11225 53.6011C7.79438 53.0371 7.27318 52.6309 6.64784 52.4572C6.02104 52.284 5.3661 52.3634 4.80199 52.6819L2.40404 54.0388C1.23817 54.6993 0.826553 56.1851 1.48705 57.3511L8.53427 69.8031C8.85214 70.3658 9.37333 70.7733 10.0009 70.9463C10.2161 71.0062 10.4372 71.0352 10.6552 71.0352C11.0689 71.0352 11.4771 70.9297 11.8453 70.7201L14.2432 69.364C14.8066 69.0448 15.2126 68.5242 15.3858 67.8974C15.5595 67.272 15.4788 66.6156 15.1603 66.0517L14.6356 65.1263L15.5816 64.5796L26.3589 67.4686C26.9988 67.6396 27.6358 67.7251 28.2634 67.7251C29.5313 67.7251 30.7573 67.3749 31.8798 66.6846L47.385 57.1366C48.9805 56.1555 49.4948 53.6926 48.4633 51.9717C47.9665 51.1432 45.9449 48.672 40.7711 51.6851Z" fill="#242222"/>
</svg>
