<svg width="75" height="75" viewBox="0 0 75 75" fill="none" xmlns="http://www.w3.org/2000/svg">
<g clip-path="url(#clip0_1243_1733)">
<path d="M56.875 55.3949L41.6937 60.8649C41.015 61.1096 40.2637 61.0492 39.6326 60.6989L29.375 55H38.75C41.1664 55 43.125 53.0414 43.125 50.625C43.125 48.2086 41.1664 46.25 38.75 46.25H29.375L11.875 52.5H9.375V68.75H11.875L38.6249 73.6151C39.1107 73.703 39.6118 73.645 40.0647 73.4485L59.7876 64.9176C62.3181 64.0381 63.7 61.3153 62.9169 58.7537C62.1332 56.192 59.4641 54.7083 56.875 55.3949Z" fill="#FDC9A6"/>
<path d="M25.625 6.25V15L33.125 5H26.875C26.1847 5 25.625 5.55969 25.625 6.25Z" fill="#277BAA"/>
<path d="M1.875 52.5H11.875V73.75H1.875V52.5Z" fill="#277BAA"/>
<path d="M24.375 16.25H66.875V36.25H24.375V16.25Z" fill="#FBD699"/>
<path d="M44.375 16.25H66.875V36.25H44.375V16.25Z" fill="#FBEDBF"/>
<path d="M29.375 21.25H39.375V31.25H29.375V21.25Z" fill="#C0F5F9"/>
<path d="M39.375 25H35.625V21.25C35.625 20.5597 35.0653 20 34.375 20C33.6847 20 33.125 20.5597 33.125 21.25V25H29.375C28.6847 25 28.125 25.5597 28.125 26.25C28.125 26.9403 28.6847 27.5 29.375 27.5H33.125V31.25C33.125 31.9403 33.6847 32.5 34.375 32.5C35.0653 32.5 35.625 31.9403 35.625 31.25V27.5H39.375C40.0653 27.5 40.625 26.9403 40.625 26.25C40.625 25.5597 40.0653 25 39.375 25Z" fill="#FBD699"/>
<path d="M51.875 23.75H59.375V36.25H51.875V23.75Z" fill="#F55648"/>
<path d="M66.875 16.25H44.375L55.625 1.25L66.875 16.25Z" fill="#6CBAE5"/>
<path d="M55.625 1.25H35.625L24.375 16.25H44.375L55.625 1.25Z" fill="#4799CF"/>
<path d="M20.625 36.25H70.625C72.0056 36.25 73.125 37.3694 73.125 38.75C73.125 40.1306 72.0056 41.25 70.625 41.25H20.625C19.2444 41.25 18.125 40.1306 18.125 38.75C18.125 37.3694 19.2444 36.25 20.625 36.25Z" fill="#4799CF"/>
<path d="M46.875 45H49.375V47.5H46.875V45Z" fill="#F3AF3E"/>
<path d="M46.875 50H49.375V52.5H46.875V50Z" fill="#FBB540"/>
<path d="M51.875 45H54.375V47.5H51.875V45Z" fill="#FBB540"/>
<path d="M51.875 50H54.375V52.5H51.875V50Z" fill="#FBB540"/>
<path d="M56.875 45H59.375V47.5H56.875V45Z" fill="#F3AF3E"/>
<path d="M56.875 50H59.375V52.5H56.875V50Z" fill="#FBB540"/>
<path d="M61.875 45H64.375V47.5H61.875V45Z" fill="#FBB540"/>
<path d="M13.125 73.75V70.2502L38.4076 74.8474C39.1357 74.9786 39.8871 74.8914 40.5664 74.5978L60.2002 66.0974C63.3673 64.9988 65.0977 61.5912 64.1168 58.3856C63.136 55.1801 59.7949 53.3246 56.5552 54.1864C56.5192 54.1943 56.4838 54.2053 56.4502 54.2188L41.2714 59.6887C40.9314 59.8108 40.5554 59.7809 40.2386 59.6063L34.1986 56.25H38.75C41.8567 56.25 44.375 53.7317 44.375 50.625C44.375 47.5183 41.8567 45 38.75 45H29.375C29.2316 45 29.0894 45.025 28.9551 45.0739L11.6602 51.25H1.875C1.18469 51.25 0.625 51.8097 0.625 52.5V73.75C0.625 74.4403 1.18469 75 1.875 75H11.875C12.5653 75 13.125 74.4403 13.125 73.75ZM13.125 53.3752L29.5911 47.5H38.75C40.4761 47.5 41.875 48.8989 41.875 50.625C41.875 52.3511 40.4761 53.75 38.75 53.75H29.375C28.8055 53.75 28.3081 54.1351 28.1647 54.6863C28.0219 55.2374 28.2697 55.816 28.7677 56.0925L39.0253 61.7914C39.9713 62.3181 41.0992 62.4097 42.1173 62.041L57.2424 56.5912C58.3569 56.3147 59.5374 56.5668 60.4419 57.2742C61.3464 57.9822 61.875 59.0668 61.875 60.2148C61.8634 61.8311 60.8246 63.2611 59.2914 63.7714L39.5764 72.3022C39.3488 72.4011 39.0973 72.4298 38.8538 72.3853L13.125 67.7063V53.3752ZM10.625 68.75V72.5H3.125V53.75H10.625V68.75Z" fill="black"/>
<path d="M39.375 20H29.375C28.6847 20 28.125 20.5597 28.125 21.25V31.25C28.125 31.9403 28.6847 32.5 29.375 32.5H39.375C40.0653 32.5 40.625 31.9403 40.625 31.25V21.25C40.625 20.5597 40.0653 20 39.375 20ZM33.125 30H30.625V27.5H33.125V30ZM33.125 25H30.625V22.5H33.125V25ZM38.125 30H35.625V27.5H38.125V30ZM38.125 25H35.625V22.5H38.125V25Z" fill="black"/>
<path d="M74.375 38.75C74.375 36.6791 72.6959 35 70.625 35H68.125V16.25C68.125 16.2347 68.1177 16.2238 68.1165 16.2085C68.114 16.0626 68.0847 15.918 68.0298 15.7825C68.02 15.755 68.0011 15.7336 67.9889 15.7074C67.9578 15.6348 67.9193 15.5652 67.8748 15.4999L56.6248 0.499878C56.6174 0.490112 56.604 0.487671 56.5961 0.477295C56.3623 0.178223 56.0046 0.00244141 55.625 0H35.625C35.2313 0 34.8608 0.185547 34.6252 0.499878L32.1875 3.75H25.625C24.9347 3.75 24.375 4.30969 24.375 5V14.1675L23.3752 15.4999C23.3307 15.5652 23.2922 15.6348 23.2611 15.7074C23.2489 15.7336 23.23 15.755 23.2202 15.7825C23.1653 15.918 23.136 16.0626 23.1335 16.2085C23.1335 16.2238 23.125 16.2347 23.125 16.25V35H20.625C18.5541 35 16.875 36.6791 16.875 38.75C16.875 40.8209 18.5541 42.5 20.625 42.5H70.625C72.6959 42.5 74.375 40.8209 74.375 38.75ZM59.375 22.5H51.875C51.1847 22.5 50.625 23.0597 50.625 23.75V35H45.625V17.5H65.625V35H60.625V23.75C60.625 23.0597 60.0653 22.5 59.375 22.5ZM58.125 25V35H53.125V25H58.125ZM64.375 15H46.875L55.625 3.33374L64.375 15ZM36.25 2.5H53.125L43.75 15H27.1875L36.25 2.5ZM26.875 6.25H30.3125L26.875 10.8337V6.25ZM25.625 17.5H43.125V35H25.625V17.5ZM19.375 38.75C19.375 38.0597 19.9347 37.5 20.625 37.5H70.625C71.3153 37.5 71.875 38.0597 71.875 38.75C71.875 39.4403 71.3153 40 70.625 40H20.625C19.9347 40 19.375 39.4403 19.375 38.75Z" fill="black"/>
<path d="M46.875 45H49.375V47.5H46.875V45Z" fill="black"/>
<path d="M46.875 50H49.375V52.5H46.875V50Z" fill="black"/>
<path d="M51.875 45H54.375V47.5H51.875V45Z" fill="black"/>
<path d="M51.875 50H54.375V52.5H51.875V50Z" fill="black"/>
<path d="M56.875 45H59.375V47.5H56.875V45Z" fill="black"/>
<path d="M56.875 50H59.375V52.5H56.875V50Z" fill="black"/>
<path d="M61.875 45H64.375V47.5H61.875V45Z" fill="black"/>
</g>
<defs>
<clipPath id="clip0_1243_1733">
<rect width="75" height="75" fill="white"/>
</clipPath>
</defs>
</svg>
