<svg width="75" height="75" viewBox="0 0 75 75" fill="none" xmlns="http://www.w3.org/2000/svg">
<g clip-path="url(#clip0_1243_1766)">
<path d="M74.8535 6.5855V46.9923C74.8535 50.5846 71.9393 53.4988 68.3453 53.4988H6.36005C2.76604 53.4988 -0.146484 50.5846 -0.146484 46.9923V6.5855C-0.146484 3.0304 2.73571 0.146484 6.29139 0.146484H68.4145C71.9696 0.146484 74.8535 3.0304 74.8535 6.5855Z" fill="#C4E2F2"/>
<path d="M52.4803 62.181L37.3529 65.628L22.2244 62.181L24.2969 53.4995L36.7103 48.9351L50.4077 53.4995L51.0784 56.3096L52.4803 62.181Z" fill="#2D303B"/>
<path d="M74.8535 46.2256V46.9906C74.8535 50.5846 71.9393 53.4989 68.3453 53.4989H6.36005C2.76604 53.4989 -0.146484 50.5846 -0.146484 46.9906V46.2256H74.8535Z" fill="#3C3F4D"/>
<path d="M52.4803 62.181H29.342L30.7439 56.3096H51.0784L52.4803 62.181Z" fill="#3C3F4D"/>
<path d="M61.3958 67.0143V69.076H13.3105V67.0143C13.3105 64.345 15.4746 62.1809 18.144 62.1809H56.5624C59.2317 62.1809 61.3958 64.345 61.3958 67.0143Z" fill="#2D303B"/>
<path d="M66.8347 53.4989H32.8721L34.5355 37.4829H65.1707L66.8347 53.4989Z" fill="#83B2C6"/>
<path d="M34.9182 19.4395L34.517 22.5002L33.233 32.2797C33.0018 34.041 31.5021 35.3576 29.7248 35.3576H14.3972C12.6205 35.3576 11.1202 34.041 10.889 32.2797L9.20386 19.4395L22.0613 15.9954L34.9182 19.4395Z" fill="#1F81A3"/>
<path d="M34.517 22.5002L33.233 32.2798C33.0018 34.041 31.5021 35.3577 29.7248 35.3577H19.2952C17.518 35.3577 16.0182 34.041 15.7871 32.2798L14.9167 25.6519C14.6976 23.9823 15.9976 22.5002 17.6816 22.5002H34.517Z" fill="#2C92BF"/>
<path d="M36.6784 15.9772V17.8506C36.6784 18.7278 35.9671 19.4396 35.0899 19.4396H9.03286C8.15567 19.4396 7.44385 18.7278 7.44385 17.8506V15.9772C7.44385 15.1 8.15567 14.3882 9.03286 14.3882H35.0899C35.9671 14.3882 36.6784 15.1 36.6784 15.9772Z" fill="#1F81A3"/>
<path d="M36.6783 15.9772V17.8506C36.6783 18.7278 35.9671 19.4396 35.0899 19.4396H15.1548C14.2782 19.4396 13.5664 18.7278 13.5664 17.8506V15.9772C13.5664 15.1 14.2782 14.3882 15.1548 14.3882H35.0899C35.9671 14.3882 36.6783 15.1 36.6783 15.9772Z" fill="#2C92BF"/>
<path d="M22.0614 7.19434C20.624 7.19434 19.459 8.35934 19.459 9.79615V22.1941C19.459 23.6315 20.624 24.7965 22.0614 24.7965C23.4982 24.7965 24.6632 23.6315 24.6632 22.1941V9.79615C24.6632 8.35934 23.4982 7.19434 22.0614 7.19434Z" fill="#3C3F4D"/>
<path d="M66.682 53.4989H32.7188L33.4735 46.2256H65.9272L66.682 53.4989Z" fill="#2D303B"/>
<path d="M67.1603 37.4822H36.5256L32.6226 75.0457H71.0633L67.1603 37.4822Z" fill="#FF491F"/>
<path d="M49.1891 49.6279H27.8945L25.1816 75.0458H51.9025L49.1891 49.6279Z" fill="#FFE14D"/>
<path d="M60.1079 42.3038C59.4733 42.3038 58.9595 41.7899 58.9595 41.1559V33.5805C58.9595 29.6557 55.7671 26.4634 51.8429 26.4634C47.9182 26.4634 44.7259 29.6563 44.7259 33.5805V41.1559C44.7259 41.7899 44.212 42.3038 43.578 42.3038C42.944 42.3038 42.4302 41.7899 42.4302 41.1559V33.5805C42.4302 28.39 46.6525 24.1677 51.8429 24.1677C57.0328 24.1677 61.2557 28.39 61.2557 33.5805V41.1559C61.2557 41.7899 60.7419 42.3038 60.1079 42.3038Z" fill="white"/>
<path d="M38.542 65.2829C35.1872 65.2829 32.4578 62.5535 32.4578 59.1987V54.2628C32.4578 53.6288 32.9722 53.115 33.6062 53.115C34.2402 53.115 34.754 53.6288 34.754 54.2628V59.1987C34.754 61.2872 36.4535 62.9867 38.542 62.9867C40.6311 62.9867 42.33 61.2878 42.33 59.1987V54.2628C42.33 53.6288 42.8439 53.115 43.4779 53.115C44.1119 53.115 44.6257 53.6288 44.6257 54.2628V59.1987C44.6257 62.5535 41.8969 65.2829 38.542 65.2829Z" fill="#3C3F4D"/>
<path d="M48.2048 12.9558H43.3068C42.6728 12.9558 42.1589 12.442 42.1589 11.808C42.1589 11.174 42.6728 10.6602 43.3068 10.6602H48.2048C48.8389 10.6602 49.3527 11.174 49.3527 11.808C49.3527 12.442 48.8389 12.9558 48.2048 12.9558Z" fill="#FF491F"/>
<path d="M69.1739 12.9558H53.2558C52.6217 12.9558 52.1079 12.442 52.1079 11.808C52.1079 11.174 52.6217 10.6602 53.2558 10.6602H69.1739C69.8085 10.6602 70.3223 11.174 70.3223 11.808C70.3223 12.442 69.8079 12.9558 69.1739 12.9558Z" fill="#3C3F4D"/>
<path d="M48.2048 18.3133H43.3068C42.6728 18.3133 42.1589 17.7989 42.1589 17.1649C42.1589 16.5309 42.6728 16.0171 43.3068 16.0171H48.2048C48.8389 16.0171 49.3527 16.5309 49.3527 17.1649C49.3527 17.7989 48.8389 18.3133 48.2048 18.3133Z" fill="#FF491F"/>
<path d="M69.1739 18.3133H53.2558C52.6217 18.3133 52.1079 17.7989 52.1079 17.1649C52.1079 16.5309 52.6217 16.0171 53.2558 16.0171H69.1739C69.8085 16.0171 70.3223 16.5309 70.3223 17.1649C70.3223 17.7989 69.8079 18.3133 69.1739 18.3133Z" fill="#3C3F4D"/>
</g>
<defs>
<clipPath id="clip0_1243_1766">
<rect width="75" height="75" fill="white"/>
</clipPath>
</defs>
</svg>
